<svg xmlns="http://www.w3.org/2000/svg" xmlns:xlink="http://www.w3.org/1999/xlink" version="1.1" id="Layer_1" x="0px" y="0px" viewBox="0 0 315 286.131" style="enable-background:new 0 0 315 286.131;" xml:space="preserve">
      <style type="text/css">.st0{fill:#2a8f4c;}</style>
    <g id="color_index_0" fill="#2a8f4c">
              <path d="M166.166,14.472c4.68,0,9.281,0.351,13.771,1.012c0.07-0.531,0.1-1.062,0.1-1.614&#9;&#9;C180.038,6.214,173.824,0,166.166,0c-7.657,0-13.871,6.214-13.871,13.871c0,0.551,0.03,1.082,0.1,1.614&#9;&#9;C156.885,14.823,161.486,14.472,166.166,14.472z" fill="#2a8f4c"/>
        <path d="M212.148,153.74c22.986-1.566,42.871-4.272,57.525-7.74c16.679-3.954,26.576-8.874,26.576-14.214&#9;&#9;c0-5.204-9.408-10.021-25.349-13.907c-23.69-5.795-61.775-9.544-104.734-9.544c-24.889,0-48.134,1.261-67.899,3.446&#9;&#9;c23.862-5.085,59.481-8.307,99.296-8.307c8.567,0,16.952,0.148,25.064,0.432c-2.795-31.279-21.61-57.935-48.186-71.717&#9;&#9;c40.483,3.681,73.205,34.222,80.204,73.66c5.124,0.454,10.067,0.954,14.782,1.523c-8.328-43.539-43.516-77.523-87.646-84.09&#9;&#9;c-5.09-0.75-10.305-1.148-15.611-1.148s-10.521,0.398-15.611,1.148c-47.628,7.09-84.826,46.105-89.123,94.596&#9;&#9;c-0.001,0-0.003,0.001-0.004,0.001c-15.941,3.886-25.348,8.703-25.348,13.907c0,5.34,9.896,10.26,26.576,14.214&#9;&#9;c14.242,3.37,33.423,6.021,55.59,7.605l-16.409,36.53l-51.584-3.554l-1.861,27.008l70.408,4.85l28.495-63.437&#9;&#9;c6.161,0.161,12.459,0.246,18.868,0.246c5.07,0,10.071-0.054,14.99-0.155l62.114,100.444l23.025-14.238L212.148,153.74z" fill="#2a8f4c"/>
        <polygon points="280.372,264.104 274.486,254.076 251.425,268.224 261.908,286.131 315,263.779 &#9;" fill="#2a8f4c"/>
        <polygon points="0,241.766 22.204,211.561 33.194,212.364 35.171,185.412 14.95,183.936 &#9;" fill="#2a8f4c"/>
          </g>
  </svg>